<?xml version="1.0" encoding="utf-8"?>
<!-- Generator: Adobe Illustrator 24.0.1, SVG Export Plug-In . SVG Version: 6.00 Build 0)  -->
<svg version="1.1" id="Layer_1" xmlns="http://www.w3.org/2000/svg" xmlns:xlink="http://www.w3.org/1999/xlink" x="0px" y="0px"
	 viewBox="0 0 198.4 198.4" style="enable-background:new 0 0 198.4 198.4;" xml:space="preserve">
<style type="text/css">
	.st0{fill:#EC5F5B;}
	.st1{fill:#263469;}
	.st2{fill:#253368;}
</style>
<g>
	<path class="st0" d="M110.2,91.7L71.4,52.8c-0.5-0.5-0.9-0.9-1.5-1.3L46.4,28c-6.6-6.6-17.2-6.6-23.7,0h0c-6.6,6.6-6.6,17.2,0,23.7
		L59.9,89l0.2,0l2.6,2.6c6.6,6.6,6.6,17.2,0,23.7l-15.1,15.1c-6.6,6.6-6.6,17.2,0,23.7v0c6.6,6.6,17.2,6.6,23.7,0l38.9-38.9
		C116.8,108.8,116.8,98.2,110.2,91.7z"/>
	<g>
		
			<image style="overflow:visible;opacity:0.5;" width="238" height="265" xlink:href="ECD93A7FEB5C81EE.png"  transform="matrix(0.24 0 0 0.24 74.0569 73.9942)">
		</image>
		<g>
			<path class="st1" d="M99.6,126.1l-11.9-12c-6.6-6.6-6.6-17.2,0-23.7l10.5-10.7l24.4,23.7L99.6,126.1z"/>
		</g>
	</g>
	<path class="st2" d="M174.5,153.7l-37.3-37.3l-0.2,0l-2.6-2.6c-6.6-6.6-6.6-17.2,0-23.7L149.6,75c6.6-6.6,6.6-17.2,0-23.7l0,0
		c-6.6-6.6-17.2-6.6-23.7,0L87,90.1c-6.6,6.6-6.6,17.2,0,23.7l38.9,38.9c0.5,0.5,0.9,0.9,1.4,1.3l23.5,23.5c6.6,6.6,17.2,6.6,23.7,0
		l0,0C181.1,170.9,181.1,160.3,174.5,153.7z"/>
</g>
</svg>
