<?xml version="1.0" encoding="utf-8"?>
<!-- Generator: Adobe Illustrator 24.0.1, SVG Export Plug-In . SVG Version: 6.00 Build 0)  -->
<svg version="1.1" id="Layer_1" xmlns="http://www.w3.org/2000/svg" xmlns:xlink="http://www.w3.org/1999/xlink" x="0px" y="0px"
	 viewBox="0 0 496.4 205.6" style="enable-background:new 0 0 496.4 205.6;" xml:space="preserve">
<style type="text/css">
	.st0{fill:#FFFFFF;}
	.st1{fill:#EC5F5B;}
	.st2{fill:#FFFFFF;}
</style>
<path class="st0" d="M135.8,120.3"/>
<g>
	<path class="st1" d="M108.3,95.2L69.4,56.4c-0.5-0.5-0.9-0.9-1.5-1.3L44.5,31.6c-6.6-6.6-17.2-6.6-23.7,0h0
		c-6.6,6.6-6.6,17.2,0,23.7L58,92.6l0.2,0l2.6,2.6c6.6,6.6,6.6,17.2,0,23.7l-15.1,15.1c-6.6,6.6-6.6,17.2,0,23.7v0
		c6.6,6.6,17.2,6.6,23.7,0l38.9-38.9C114.8,112.4,114.8,101.8,108.3,95.2z"/>
	<g>
		
			<image style="overflow:visible;opacity:0.5;" width="238" height="265" xlink:href="4C42BADF57E08CE3.png"  transform="matrix(0.24 0 0 0.24 72.11 77.5574)">
		</image>
		<g>
			<path class="st0" d="M97.6,129.6l-11.9-12c-6.6-6.6-6.6-17.2,0-23.7l10.5-10.7l24.4,23.7L97.6,129.6z"/>
		</g>
	</g>
	<path class="st2" d="M172.6,157.3L135.3,120l-0.2,0l-2.6-2.6c-6.6-6.6-6.6-17.2,0-23.7l15.1-15.1c6.6-6.6,6.6-17.2,0-23.7l0,0
		c-6.6-6.6-17.2-6.6-23.7,0L85,93.6c-6.6,6.6-6.6,17.2,0,23.7l38.9,38.9c0.5,0.5,0.9,0.9,1.4,1.3l23.5,23.5c6.6,6.6,17.2,6.6,23.7,0
		l0,0C179.1,174.5,179.1,163.8,172.6,157.3z"/>
</g>
<g>
	<path class="st2" d="M255.3,141.5h-10.5v-16.4c-5.6,10.5-16.3,18.7-32.8,18.7c-25.4,0-41.1-19.8-41.1-42.2
		c0-23.7,17.1-41.9,40.9-41.9c17.4,0,29,10.1,32.5,18.4V61.1V31.9h10.9V141.5z M181.7,101.7c0.1,16,11.2,31.8,31.9,31.8
		c8.9,0,17-3.6,22.6-9.3c5.8-5.9,9.2-14.1,8.9-23c0-9-3.4-16.7-9.2-22.4c-5.6-5.8-13.6-9.2-22.5-9.2c-18.3,0-31.8,13.9-31.8,31.8
		V101.7z"/>
	<path class="st2" d="M267.4,31.9h10.9v29.9v16c6.7-11.3,18.6-18.1,32.4-18.2c22.6,0,40.9,17,40.9,41.9c0,24-17.1,42.2-41.2,42.2
		c-14.9,0-26.6-7.3-32.5-18.7v16.4h-10.5V31.9z M340.8,101.5c0-18.2-13.7-31.8-31.5-31.8c-18.3,0-31.5,14.2-31.5,31.8
		c0,17.3,12.6,32,31,32c21.1,0,31.9-16.4,31.9-31.8V101.5z"/>
	<path class="st2" d="M359.3,70.6h-11.7v-8.7h11.7v-6.5c0-24.6,19.4-25.3,27.9-25.3v8.7c-5.5,0.3-17.1,0.3-17.1,17.6v5.5h17.1v8.7
		h-17.1v70.9h-10.8V70.6z"/>
	<path class="st2" d="M392.8,38.9h10.9v22.9v16c6.7-11.3,18.6-18.1,32.4-18.2c22.6,0,40.9,17,40.9,41.9c0,24-17.1,42.2-41.2,42.2
		c-14.9,0-26.6-7.3-32.5-18.7v16.4h-10.5V38.9z M466.2,101.5c0-18.2-13.7-31.8-31.5-31.8c-18.3,0-31.5,14.2-31.5,31.8
		c0,17.3,12.6,32,31,32c21.1,0,31.9-16.4,31.9-31.8V101.5z"/>
</g>
</svg>
